<svg aria-hidden="true" style="position: absolute; width: 0; height: 0; overflow: hidden;" version="1.1" xmlns="http://www.w3.org/2000/svg" xmlns:xlink="http://www.w3.org/1999/xlink">
<defs>
<symbol id="icon-flickr4" viewBox="0 0 32 32">
<title>just-be-weird!</title>
<path d="M16 0c-8.837 0-16 7.212-16 16.109s7.163 16.109 16 16.109 16-7.212 16-16.109-7.163-16.109-16-16.109zM9 21c-2.761 0-5-2.239-5-5s2.239-5 5-5 5 2.239 5 5c0 2.761-2.239 5-5 5zM23 21c-2.761 0-5-2.239-5-5s2.239-5 5-5 5 2.239 5 5c0 2.761-2.239 5-5 5z"></path>
</symbol>
</defs>
</svg>
