<?xml version="1.0" encoding="utf-8"?>
<svg id="master-artboard" viewBox="0 0 145.04693603515625 202.62911987304688" version="1.1" xmlns="http://www.w3.org/2000/svg" x="0px" y="0px" enable-background="new 0 0 2850 1800" width="145.04693603515625px" height="202.62911987304688px">


<g transform="matrix(0.6562437415122986, 0, 0, 0.6562437415122986, 0.9261693954467773, -2.2753913402557373)"><g id="g-2" viewBox="0 0 222.5220489501953 318.540283203125" version="1.0" xmlns="http://www.w3.org/2000/svg" x="0px" y="0px" width="1400px" height="980px" enable-background="new 0 0 1400 980"><rect id="rect-1" x="0" y="0" width="222.5220489501953" height="318.540283203125" style="fill: white; fill-opacity: 0; pointer-events: none;"/>

<g transform="matrix(1, 0, 0, 1, -474.17894673347473, -282.9134826660156)">
<g transform="matrix(1.0899292153072313, 0, 0, 1.0899292153072313, 374.67035392988794, -331.75718360765205)">
		<path fill="#991307" d="M283.9,748c-7.5-9.9-52-20.4-54.2-22.3c-2.3-1.8-16.3-11.6-16.3-11.6H193h-20.4c0,0-14,9.8-16.3,11.6&#10;&#9;&#9;&#9;c-2.3,1.8-46.7,12.4-54.2,22.3c-13.2,17.2-7,81.2-8.5,105.3H193h99.4C290.9,829.2,297.1,765.2,283.9,748z"/>
		<path d="M 174.399994 758.900024 H 213.199993 V 853.300026 H 174.399994 V 758.900024 Z" fill="#FAD7D5"/>
		<path fill="#EB9257" d="M219.9,706.6c-0.7,1-1.5,1.9-2.3,2.8c0,0-0.1,0.1-0.1,0.1c-5.9,6.4-13.4,11-22.9,12.2c-0.3,0-0.5,0-0.8,0&#10;&#9;&#9;&#9;c-0.3,0-0.5,0-0.8,0c-9.6-1.3-17.1-5.9-23-12.3c-1.4-1.6-2.7-3.3-3.9-5v9.6H166c0,0,0,2-0.6,4.5c0.8,2,9,40.3,9,40.3&#10;&#9;&#9;&#9;s0,13.2,19.4,13.2c19.4,0,19.4-13.2,19.4-13.2s6.6-38.3,7.4-40.3c-0.5-2.1-0.6-3.8-0.6-4.3V706.6z"/>
		<path fill="#30210F" d="M263.9,653.5c-12.5-2.9-2.2-61-43.3-80.3c-57.6-27.1-82,23.5-83.8,31.3c-23.6,107.4,5.5,191.7,5.5,191.7&#10;&#9;&#9;&#9;c35-9.2,34.4-51.4,26.6-88.1c-4.1-4.9-7.3-10.3-9.7-15.7c-1.5-3.4-2.8-6.9-3.9-10.4c-5.3-17.1-4.7-33.2-4.7-33.2&#10;&#9;&#9;&#9;c18.8-19.2,23.5-32.1,24.7-37.7c0.4-2.2,0.4-3.3,0.4-3.3c0,0.1,0,0.1,0,0.2v0c0,0.2,0.1,0.4,0.1,0.6c0,0.2,0.1,0.5,0.2,0.7&#10;&#9;&#9;&#9;c0,0,0,0,0,0c0.1,0.5,0.2,0.9,0.4,1.4c0,0,0,0.1,0,0.1c0,0,0,0.1,0,0.1c0.5,1.4,1.2,2.7,2,4.1c0,0,0,0.1,0.1,0.1c0,0,0,0,0,0&#10;&#9;&#9;&#9;c6.1,9.6,20.4,17.9,33.4,23.8c0,0,0.1,0,0.1,0.1c0.7,0.3,1.4,0.6,2,0.9c0.1,0,0.1,0.1,0.2,0.1c1.9,0.9,3.8,1.6,5.6,2.4&#10;&#9;&#9;&#9;c0.2,0.1,0.4,0.2,0.6,0.2c0.5,0.2,1,0.4,1.4,0.6c0.3,0.1,0.5,0.2,0.8,0.3c0.4,0.2,0.8,0.3,1.2,0.5c0.4,0.1,0.7,0.3,1.1,0.4&#10;&#9;&#9;&#9;c0.4,0.2,0.8,0.3,1.2,0.4c0.5,0.2,1.1,0.4,1.6,0.6c0.2,0.1,0.4,0.2,0.6,0.2c0.4,0.2,0.8,0.3,1.2,0.4c0.2,0.1,0.4,0.1,0.6,0.2&#10;&#9;&#9;&#9;c0.4,0.2,0.8,0.3,1.2,0.4c0.1,0,0.2,0.1,0.3,0.1c1.1,0.4,2,0.7,2.7,0.9c0,0,0.1,0,0.1,0c0.2,0.1,0.4,0.1,0.6,0.2&#10;&#9;&#9;&#9;c1,0.3,1.4,0.3,1.7,0.5c0.1,0,0.2,0.1,0.2,0.1c0,0.1,0,0.3,0,0.4c0,0.2,0,0.5,0,1c0,1.4,0,2.7,0,4c-0.2,5.6-1,16.3-4.7,28&#10;&#9;&#9;&#9;c-0.1,0.2-0.1,0.4-0.2,0.6c-5.7,18.3-14.5,26.7-14.5,26.7c44.9-6.6,33.7-58.8,33.7-58.8C255.3,654.7,263.9,653.5,263.9,653.5z"/>
		<g>
			
				<path d="M 156.899997 660.200012 A 7.2 11.6 0 0 1 149.699997 671.800013 A 7.2 11.6 0 0 1 142.499997 660.200012 A 7.2 11.6 0 0 1 149.699997 648.600012 A 7.2 11.6 0 0 1 156.899997 660.200012 Z" transform="matrix(0.9908 -0.1352 0.1352 0.9908 -87.9137 26.3161)" fill="#EB9257"/>
			
				<path d="M 247.799997 660.200012 A 11.6 7.2 0 0 1 236.199997 667.400012 A 11.6 7.2 0 0 1 224.599997 660.200012 A 11.6 7.2 0 0 1 236.199997 653.000012 A 11.6 7.2 0 0 1 247.799997 660.200012 Z" transform="matrix(0.1352 -0.9908 0.9908 0.1352 -449.8693 804.9277)" fill="#EB9257"/>
		</g>
		<path fill="#F4A169" d="M217.7,709.5c4.6-5.3,8.1-11.1,10.8-16.9c1.5-3.4,2.8-6.9,3.9-10.4c3.6-11.7,4.5-22.5,4.7-28&#10;&#9;&#9;&#9;c0-1.3,0-2.7,0-4c0-1.9,0-1.4-1.9-2c-8.8-2.9-45.8-15.7-56.7-32.8c0,0,0-0.1-0.1-0.1c-0.8-1.3-1.5-2.7-2-4.1&#10;&#9;&#9;&#9;c0-0.1-0.1-0.1-0.1-0.2c-0.2-0.4-0.3-0.9-0.4-1.4c0-0.1,0-0.1,0-0.2c-0.1-0.4-0.2-0.8-0.3-1.2c0,1.7-0.6,15.9-25.1,40.9&#10;&#9;&#9;&#9;c0,0-0.6,16.1,4.7,33.2c1.1,3.5,2.4,7,3.9,10.4c2.7,5.9,6.2,11.7,10.8,17c5.9,6.4,13.4,11,23,12.3c0.3,0,0.5,0,0.8,0&#10;&#9;&#9;&#9;c0.3,0,0.5,0,0.8,0C204.2,720.5,211.7,715.9,217.7,709.5C217.6,709.5,217.6,709.5,217.7,709.5z"/>
	</g>
    </g>
</g></g></svg>