<?xml version="1.0" encoding="utf-8"?>
<svg id="master-artboard" viewBox="0 0 176.44735717773438 200.591064453125" version="1.1" xmlns="http://www.w3.org/2000/svg" x="0px" y="0px" enable-background="new 0 0 2850 1800" width="176.44735717773438px" height="200.591064453125px">
<g transform="matrix(2.121649742126465, 0, 0, 2.121649742126465, -1630.5177001953125, -780.8877878189087)"><g id="g-1" viewBox="0 0 573.4125366210938 658.2411499023438" version="1.0" xmlns="http://www.w3.org/2000/svg" x="0px" y="0px" width="1400px" height="980px" enable-background="new 0 0 1400 980">
        <rect id="ee-background" x="0" y="0" width="176.44735717773438" height="200.591064453125" style="fill: white; fill-opacity: 0; pointer-events: none;"/>
        <g transform="matrix(0.15028339624404904, 0, 0, 0.15028339624404904, 580.687561035156, 539.935725363883)">
            <g transform="matrix(2.299198627471924, 0, 0, 2.299198627471924, 1081.2408832395395, -1459.9770179404868)">
                <path fill="#0F303F" d="M300.1,320.5c-8.9-11-68.2-27.3-70.5-29.2s-9.5-11.6-9.5-11.6H193h-27.2c0,0-7.2,9.8-9.5,11.6&#10;&#9;&#9;&#9;c-2.3,1.8-61.6,18.2-70.5,29.2c-15.6,19.2-8.3,71.5-10,98.5H193h117.2C308.4,392,315.7,339.8,300.1,320.5z"/>
                <path d="M 193 320.5 L 165.89999389648438 279.70001220703125 L 165.89999389648438 254.8000030517578 L 220.10000610351562 254.8000030517578 L 220.10000610351562 279.6000061035156 Z" fill="#A3754C"/>
                <path fill="#D1BAB0" d="M227.8,289.7c-3-3.4-7.8-9.9-7.8-9.9L193,320.5l-27.1-40.7c0,0-4.8,6.5-7.8,9.9l18,54.9l16.9-14.9&#10;&#9;&#9;&#9;l16.9,14.9L227.8,289.7z"/>
                <g>
                    <path fill="#A3754C" d="M235.7,208.5c-0.6,10.1-1.5,20.6-2.5,28.8c9.5-4.3,10.6-19.4,11-27.8&#10;&#9;&#9;&#9;&#9;C244.5,202.3,238.3,206.4,235.7,208.5z"/>
                    <path fill="#A3754C" d="M150.3,208.5c0.6,10.1,1.5,20.6,2.5,28.8c-9.5-4.3-10.6-19.4-11-27.8&#10;&#9;&#9;&#9;&#9;C141.4,202.3,147.6,206.4,150.3,208.5z"/>
                </g>
                <path fill="#BE8859" d="M212.2,175.1c-12.2,5.5-19.2,5.7-19.2,5.7l0,0c0,0-7.1-0.2-19.2-5.7c-3.6-1.6-24-5.2-23.6,31&#10;&#9;&#9;&#9;c1.1,18.6,2.9,39.3,5.6,44.9c5.2,10.7,19.1,29.4,37.2,29.4l0,0c18.2,0,32.1-18.8,37.2-29.4c2.7-5.6,4.5-26.3,5.6-44.9&#10;&#9;&#9;&#9;C236.2,169.9,215.8,173.5,212.2,175.1z"/>
                <path fill="#3C2418" d="M244.9,180.2c0.6-0.8,1-1.8,1-2.9c0-1.8-0.9-3.3-2.3-4.2c0.1-0.3,0.1-0.7,0.1-1c0-1.7-0.9-3.3-2.2-4.2&#10;&#9;&#9;&#9;c0.3-0.7,0.5-1.4,0.5-2.2c0-2.2-1.4-4-3.3-4.7c-0.7-1.5-2.2-2.6-3.9-2.8c0.1-0.4,0.2-0.8,0.2-1.2c0-2.8-2.3-5-5-5c0,0-0.1,0-0.1,0&#10;&#9;&#9;&#9;c-0.4-2-2-3.5-4-3.8c-0.7-1.8-2.6-3.2-4.7-3.2c-1.2,0-2.2,0.4-3.1,1.1c-0.8-1.8-2.6-3.1-4.6-3.1c0,0-0.1,0-0.1,0&#10;&#9;&#9;&#9;c-0.5-2.3-2.5-3.9-4.9-3.9c-1.5,0-2.8,0.7-3.8,1.7c-0.8-1.7-2.5-2.9-4.5-2.9c-1.1,0-2.1,0.4-2.9,0.9c-0.9-1.3-2.4-2.1-4.1-2.1&#10;&#9;&#9;&#9;c-1.6,0-3,0.8-4,1.9c-0.9-1.2-2.3-1.9-4-1.9c-2.6,0-4.8,2-5,4.6c0,0,0,0,0,0c-1.7,0-3.2,0.8-4.1,2.1c-0.1,0-0.3,0.1-0.4,0.1&#10;&#9;&#9;&#9;c-0.7-0.4-1.5-0.7-2.4-0.7c-2,0-3.7,1.2-4.5,2.8c-0.8-0.5-1.8-0.9-2.8-0.9c-1.8,0-3.3,0.9-4.2,2.3c-0.5-0.2-1.1-0.3-1.7-0.3&#10;&#9;&#9;&#9;c-2.8,0-5,2.3-5,5c0,0.4,0.1,0.8,0.2,1.2c-2.2,0.5-3.8,2.3-4,4.5c-1.1,0.7-1.9,1.8-2.3,3c-2.3,0.5-4.1,2.5-4.1,4.9&#10;&#9;&#9;&#9;c0,0.3,0,0.5,0.1,0.8c-1.4,0.9-2.4,2.5-2.4,4.3c0,0.7,0.1,1.4,0.4,2c-1.9,0.7-3.2,2.6-3.2,4.7c0,1,0.3,1.9,0.8,2.7&#10;&#9;&#9;&#9;c-0.7,0.9-1.1,1.9-1.1,3.1c0,1.8,0.9,3.3,2.3,4.2c0,0.3-0.1,0.6-0.1,0.8c0,1.4,0.6,2.7,1.5,3.6c2,18.7,9.1,39.1,9.1,39.1&#10;&#9;&#9;&#9;c0-24.4,8.2-37.4,8.2-37.4c7.3,3.2,32.8,3.5,32.8,3.5s25.5-0.3,32.8-3.5c0,0,8.2,13,8.2,37.4c0,0,6.9-19.8,9-38.3&#10;&#9;&#9;&#9;c1.5-0.9,2.5-2.5,2.5-4.3c0-1.1-0.4-2.1-0.9-2.9c0.6-0.8,0.9-1.8,0.9-2.9C245.4,181.5,245.2,180.8,244.9,180.2z"/>
            </g>
        </g>
    </g></g></svg>