<?xml version="1.0" standalone="no"?>
<!DOCTYPE svg PUBLIC "-//W3C//DTD SVG 20010904//EN"
 "http://www.w3.org/TR/2001/REC-SVG-20010904/DTD/svg10.dtd">
<svg version="1.0" xmlns="http://www.w3.org/2000/svg"
 width="700.000000pt" height="700.000000pt" viewBox="0 0 700.000000 700.000000"
 preserveAspectRatio="xMidYMid meet">
<metadata>
Created by potrace 1.11, written by Peter Selinger 2001-2013
</metadata>
<g transform="translate(0.000000,700.000000) scale(0.100000,-0.100000)"
fill="#000000" stroke="none">
<path d="M3278 6995 c-1 -1 -41 -5 -88 -9 -47 -4 -96 -8 -110 -10 -14 -2 -46
-7 -71 -10 -63 -9 -103 -16 -239 -42 -82 -16 -305 -80 -425 -122 -172 -60
-195 -70 -370 -155 -792 -387 -1405 -1051 -1728 -1872 -47 -120 -106 -294
-122 -361 -3 -10 -11 -46 -20 -79 -17 -69 -23 -94 -30 -132 -3 -16 -8 -39 -11
-53 -3 -14 -8 -38 -10 -55 -2 -16 -6 -41 -9 -55 -3 -14 -8 -45 -10 -70 -3 -25
-7 -54 -10 -65 -19 -92 -27 -573 -12 -735 10 -108 36 -293 52 -370 3 -14 7
-36 10 -50 3 -14 7 -35 10 -47 3 -13 7 -32 9 -43 67 -300 214 -670 384 -960
51 -89 175 -279 206 -318 8 -9 50 -62 93 -117 44 -55 106 -129 139 -164 355
-385 714 -642 1195 -859 161 -73 404 -153 629 -208 l115 -28 607 -3 c685 -4
677 -5 968 77 283 80 514 175 760 311 41 23 84 47 96 53 65 35 295 197 394
277 308 248 577 551 785 884 59 93 246 450 252 480 1 6 16 43 33 84 66 160
145 421 175 581 27 140 36 192 40 230 3 25 7 56 10 68 32 161 26 707 -11 932
-3 19 -7 49 -9 65 -10 71 -57 287 -81 370 -14 49 -27 95 -28 100 -1 6 -11 35
-21 65 -11 30 -20 57 -20 60 -3 9 -16 43 -62 160 -349 878 -1062 1593 -1943
1948 -237 95 -522 175 -745 208 -27 4 -57 9 -65 10 -8 2 -42 6 -76 9 -33 4
-74 9 -90 11 -32 5 -540 14 -546 9z m-1143 -2415 c344 -52 650 -273 806 -581
85 -170 120 -319 120 -510 0 -320 -164 -653 -414 -847 -73 -56 -73 -56 -168
-106 -176 -92 -335 -130 -534 -128 -380 5 -743 223 -930 558 -41 73 -92 196
-100 244 -3 18 -8 37 -11 41 -2 4 -10 50 -17 101 -28 200 -1 397 78 581 31 71
102 195 129 223 6 6 26 30 44 52 151 186 405 332 642 369 125 19 240 20 355 3z
m3070 -1 c224 -34 440 -146 602 -311 517 -524 382 -1389 -272 -1737 -68 -37
-241 -97 -300 -106 -23 -3 -52 -8 -65 -10 -38 -8 -229 -8 -280 0 -65 10 -172
34 -195 44 -11 5 -47 19 -80 32 -401 154 -679 573 -676 1017 3 431 259 818
656 994 189 83 399 110 610 77z"/>
</g>
</svg>
